<svg width="512" height="512" viewBox="0 0 512 512" fill="none" xmlns="http://www.w3.org/2000/svg">
  <defs>
    <linearGradient id="bg" x1="52" y1="56" x2="460" y2="456" gradientUnits="userSpaceOnUse">
      <stop stop-color="#FFB347"/>
      <stop offset="1" stop-color="#FF7A18"/>
    </linearGradient>
  </defs>
  <rect width="512" height="512" rx="128" fill="url(#bg)"/>
  <circle cx="256" cy="218" r="156" fill="#FFF4CC" fill-opacity="0.28"/>
  <circle cx="108" cy="114" r="42" fill="#FFE599"/>
  <path d="M108 36V12M72 52L56 36M144 52L160 36" stroke="#FFF0C7" stroke-width="12" stroke-linecap="round"/>
  <path d="M108 188L154 124L195 215Z" fill="#5B8C2A"/>
  <path d="M404 188L358 124L317 215Z" fill="#5B8C2A"/>
  <path d="M138 184L156 151L175 198Z" fill="#F2B7A8"/>
  <path d="M374 184L356 151L337 198Z" fill="#F2B7A8"/>
  <ellipse cx="256" cy="290" rx="118" ry="126" fill="#000000" fill-opacity="0.12"/>
  <circle cx="256" cy="256" r="120" fill="#7CB342"/>
  <path d="M184 212C192 204 207 203 218 208" stroke="#2A261F" stroke-width="10" stroke-linecap="round"/>
  <path d="M294 208C305 203 320 204 328 212" stroke="#2A261F" stroke-width="10" stroke-linecap="round"/>
  <path d="M188 238L226 236" stroke="#2A261F" stroke-width="12" stroke-linecap="round"/>
  <path d="M286 236L324 238" stroke="#2A261F" stroke-width="12" stroke-linecap="round"/>
  <ellipse cx="191" cy="267" rx="21" ry="13" fill="#FFB88C" fill-opacity="0.48"/>
  <ellipse cx="321" cy="267" rx="21" ry="13" fill="#FFB88C" fill-opacity="0.48"/>
  <path d="M197 279C218 311 293 311 315 279C304 263 208 263 197 279Z" fill="#6B2D24"/>
  <rect x="244" y="281" width="18" height="24" rx="4" fill="#FFF6E5"/>
  <rect x="312" y="332" width="74" height="56" rx="8" fill="#F7F2EA"/>
  <rect x="312" y="332" width="74" height="10" rx="5" fill="#D6CDBF"/>
  <path d="M379 349C392 349 397 360 397 367C397 377 390 383 382 383" stroke="#F7F2EA" stroke-width="10" stroke-linecap="round"/>
  <path d="M328 336C322 318 342 310 336 292" stroke="#FFF8EE" stroke-opacity="0.74" stroke-width="7" stroke-linecap="round"/>
  <path d="M352 336C346 316 366 308 360 290" stroke="#FFF8EE" stroke-opacity="0.74" stroke-width="7" stroke-linecap="round"/>
  <circle cx="144" cy="396" r="52" fill="#2A261F"/>
  <path d="M111 408V372H126L136 390L146 372H161V408H149V390L141 403H131L123 390V408H111Z" fill="#FFE599"/>
  <path d="M168 399V365H183C200 365 209 372 209 386C209 401 198 409 180 409H168V399ZM180 398C191 398 196 394 196 386C196 379 191 376 181 376H180V398Z" fill="#FFE599"/>
  <rect x="18" y="18" width="476" height="476" rx="116" stroke="#4B1E0A" stroke-opacity="0.18" stroke-width="8"/>
</svg>
